<svg xmlns="http://www.w3.org/2000/svg" viewBox="0 0 104.79 80.01"><defs><style>.cls-1,.cls-2{fill:#fff;}.cls-2{font-size:8px;font-family:Montserrat-Regular, Montserrat;}.cls-3{letter-spacing:-0.01em;}.cls-4{letter-spacing:0em;}.cls-5{letter-spacing:0em;}</style></defs><title>Asset 4</title><g id="Layer_2" data-name="Layer 2"><g id="Layer_1-2" data-name="Layer 1"><path class="cls-1" d="M17.51,35.35q1.3-2.14,2.28-3.54t1.63-2.18l1.3-1.5A6,6,0,0,1,24.1,27a5.4,5.4,0,0,1,1.3-.57,2.18,2.18,0,0,1,1.45.07,1.63,1.63,0,0,1,1.05,1.21,4.6,4.6,0,0,1-.07,2A11.67,11.67,0,0,1,27,32.06a27.34,27.34,0,0,1-1.41,2.57q-.73,1.07-1.92,3.11t-2.32,4.32a42.23,42.23,0,0,0-1.92,4.54,8.83,8.83,0,0,0-.65,3.68,2.77,2.77,0,0,0,.36,1q.29.5,1.16.07a7.58,7.58,0,0,0,1.88-1.43q1-1,1.88-2,1-1.21,2-2.64t2.1-3.22L30,39l1.56-2.54a12.81,12.81,0,0,1,1.2-1.68.3.3,0,0,1,.22-.07,2,2,0,0,1,.72.14q.29.07.22.57c0,.1-.16.39-.33.89a15.17,15.17,0,0,1-.83,1.89,54.74,54.74,0,0,1-3.26,5.93A44.15,44.15,0,0,1,26,49a18.32,18.32,0,0,1-4.39,3.89,4.33,4.33,0,0,1-.73.36,6.37,6.37,0,0,1-1.59.43,6.14,6.14,0,0,1-2.07-.07A5.15,5.15,0,0,1,15,52.57a4.38,4.38,0,0,1-1.3-3.18A19,19,0,0,1,14,44.57q-1.09,1.72-2.21,3.32a30,30,0,0,1-2.28,2.89,17.84,17.84,0,0,1-2.21,2.11,3.77,3.77,0,0,1-2,.89,4.34,4.34,0,0,1-1.45,0,4.44,4.44,0,0,1-1.16-.39,3.91,3.91,0,0,1-2.1-2.5A13.8,13.8,0,0,1,0,47.71a9.07,9.07,0,0,1,0-1.61,11.42,11.42,0,0,1,.22-1.46q.15-.79.22-1.43a47.64,47.64,0,0,1,2.32-7.43,58.55,58.55,0,0,1,3.41-7q.44-.71,1.05-1.57a7.6,7.6,0,0,1,1.41-1.5,5.19,5.19,0,0,1,1.7-.93,3,3,0,0,1,1.92.07A1.73,1.73,0,0,1,13.45,26a3.44,3.44,0,0,1,0,1.71,8.88,8.88,0,0,1-.65,1.79A15.35,15.35,0,0,1,12,31,60.69,60.69,0,0,0,8.37,37.6a45.68,45.68,0,0,0-2.61,7q-.36,1.36-.58,2.64T5,49.54a5.79,5.79,0,0,0,.33,2.18,8.23,8.23,0,0,0,1-.89,32.84,32.84,0,0,0,2.32-2.68q1.48-1.86,3.7-5T17.51,35.35Z"/><path class="cls-1" d="M61.8,12.2q-5.15-.14-11.16.21l-1.56,2.39a16.65,16.65,0,0,0-1.12,2q-1,1.71-2,3.5-.8,1.5-1.78,3.22t-1.78,3.22Q40,31.35,38.09,35.78q-.8,1.86-1.56,3.86t-1.38,3.89a29,29,0,0,0-.94,3.64A13.29,13.29,0,0,0,34,50.29a1.87,1.87,0,0,0,.29.93q.29.5,1,.21a9.28,9.28,0,0,0,3.52-2.21q1.85-1.72,3.52-3.57,1.88-2.21,3.77-4.86,1.09-1.43,2-2.82t1.74-2.47a1.92,1.92,0,0,1,.36-.5c.24-.24.46-.33.65-.29a1.18,1.18,0,0,1,.58.5q.22.36-.14,1.07-.58,1.14-1.3,2.36l-1.3,2.25q-.73,1.25-1.45,2.39A42.27,42.27,0,0,1,43.38,48a30.68,30.68,0,0,1-3.91,3.5A10.66,10.66,0,0,1,35,53.57a8.88,8.88,0,0,1-2.32.14,4.52,4.52,0,0,1-2.61-1.14,3.67,3.67,0,0,1-1.05-2.18,11.09,11.09,0,0,1-.11-3,20.77,20.77,0,0,1,.51-3.72q.43-2.07,1.05-4.11t1.34-4q1-3.07,2.36-6.22T37,23.35q1.45-2.93,2.94-5.54t2.79-4.75q-2.17.14-4.13.43L35,14q-1.85.25-3.3.39t-2.83.43l-3,.36q-1.67.21-3.55.36a41.81,41.81,0,0,1-7.72.25A35.42,35.42,0,0,1,9.31,15a19,19,0,0,1-4.06-1.36,5.14,5.14,0,0,1-1.7-1.39,5.15,5.15,0,0,1-.76-1.43,3.31,3.31,0,0,1-.18-1.21,3.48,3.48,0,0,1,.11-.75,4.91,4.91,0,0,1,.36-1,2.34,2.34,0,0,1,.43-.68,1.19,1.19,0,0,1,.65-.39q1.16-.14,1.41.5a4.25,4.25,0,0,1,.18,1.79,2.56,2.56,0,0,0,1.09,2.07,9,9,0,0,0,3,1.43,21.2,21.2,0,0,0,6,.64q1.3,0,3-.14l3.44-.32q2-.18,4.46-.54,4.13-.57,7.39-.93t5.58-.64q2.68-.28,4.78-.57,1.16-1.79,1.74-2.57a41.51,41.51,0,0,1,2.54-3.54,29.37,29.37,0,0,1,2-2.25A8.58,8.58,0,0,1,52.52.48,4.88,4.88,0,0,1,54,0a1.92,1.92,0,0,1,2.14,1.82,5,5,0,0,1-.25,1.89,12.14,12.14,0,0,1-1,2.21,26.39,26.39,0,0,1-1.45,2.32,3.38,3.38,0,0,1-.22.36,3.15,3.15,0,0,0-.33.39,4,4,0,0,0-.33.54q1.67-.07,3.23-.11t3.08,0a43.62,43.62,0,0,1,5,.29q2.1.21,4.53.68a17.48,17.48,0,0,1,4.46,1.46l1.38.79a7,7,0,0,1,1.2,1,8.24,8.24,0,0,1,1.12,1.39c.1.29.22.62.36,1a10.88,10.88,0,0,1,.25,1.14,4.17,4.17,0,0,1,0,1.43,3.9,3.9,0,0,1-.8,2.21,1.41,1.41,0,0,1-1.16.5q-.58-.07-.47-.54a7.86,7.86,0,0,1,.33-1,7,7,0,0,0,.25-1.36,4.46,4.46,0,0,0,0-1c0-.33-.1-.62-.14-.86a4.32,4.32,0,0,0-1-1.29,6.46,6.46,0,0,0-1.38-.93A15,15,0,0,0,71,13.56q-1.16-.36-2.54-.64t-2.9-.43C64.45,12.34,63.2,12.25,61.8,12.2Z"/><path class="cls-1" d="M98.26,59.79a2.77,2.77,0,0,1,.18,2.68,5.06,5.06,0,0,1-1.34,1.75,19.83,19.83,0,0,1-3.48,2.29,26.51,26.51,0,0,1-4.28,1.75,29.43,29.43,0,0,1-5.94,1.18,69.48,69.48,0,0,1-7.87.14q-4.39-.15-9.39-.71-3-.36-6.38-.79t-6.09-.86q-3.26-.5-6.31-1-1.09,1.21-2.25,2.43a32.36,32.36,0,0,1-2.61,2.43,34.62,34.62,0,0,1-3.77,2.79,45.58,45.58,0,0,1-4.28,2.5A32.18,32.18,0,0,1,29,78.58a29.36,29.36,0,0,1-4.78,1.07A31.75,31.75,0,0,1,19.1,80a24.62,24.62,0,0,1-6-.79,11.18,11.18,0,0,1-4.24-1.64,11.62,11.62,0,0,1-2.28-2.07,6,6,0,0,1-1.09-2.57,6.14,6.14,0,0,1,.73-3.43A10.13,10.13,0,0,1,9,66.58,17.41,17.41,0,0,1,15,64a62.46,62.46,0,0,1,8-1.36q3.84-.36,9.21-.43a77.58,77.58,0,0,1,12.18.93q.87-1.29,1.7-2.71t1.41-2.64q.73-1.43,1.38-2.86.72-1.72,1.6-4.25t1.59-5q.72-2.47,1.2-4.57a16.06,16.06,0,0,0,.47-3A4.93,4.93,0,0,1,55,35a25.41,25.41,0,0,1,2.83-3.14,41.73,41.73,0,0,1,4.06-3.36,5.47,5.47,0,0,1-2,.36,6.41,6.41,0,0,1-2-.18,5.4,5.4,0,0,1-2.1-1l-1.16,2.57q-.58,1.14-1.2,2.39c-.41.83-1.68,3.11-1.78,3.25l-.29.43q-.22.36-.76,1.36c-.17.32-.51.92-1.2,2.11s-1.07,1.78-1.26,2.07-.46.67-.61.87h-.19a.78.78,0,0,1-.08.22.79.79,0,0,1-.24.27.46.46,0,0,1-.28.38.49.49,0,0,1-.45-.06.79.79,0,0,1-.58-.21c-.24-.09-.31-.29-.22-.57a11.83,11.83,0,0,1,.65-1.25q.65-1.18,1.52-2.79l1.81-3.36q.94-1.75,1.6-3,.22-.5.65-1.43T52.66,29q.43-1,.87-1.86l.72-1.46q-.15-.07-.36-1.32a6.68,6.68,0,0,1,.43-3.18,4.34,4.34,0,0,1,1.34-2.32A2.21,2.21,0,0,1,57,18.49a1.44,1.44,0,0,1,1,.82q.44.75-.22,3.18l-.29,1q-.15.43-.29,1a5.09,5.09,0,0,1-.36,1,5.89,5.89,0,0,0,2.86.89,10.47,10.47,0,0,0,2.65-.25,9.61,9.61,0,0,0,2.68-1,5.2,5.2,0,0,1,.65-.21,2.6,2.6,0,0,1,.62-.07A1.37,1.37,0,0,1,67,25,1.62,1.62,0,0,1,68,26.13a3.74,3.74,0,0,1,.14,1.25,11.63,11.63,0,0,1-.22,2.07,12.58,12.58,0,0,1-.73,2.43,9.11,9.11,0,0,1-1.38,2.32q-.87.79-1.81,1.5a13.44,13.44,0,0,1-1.89,1.11,8.51,8.51,0,0,1-2.32.75,14.94,14.94,0,0,1-.25,1.68q-.25,1.39-.65,3.18T58,46.11q-.43,1.89-.8,3.18v.86a2.51,2.51,0,0,0,.36,1q.29.47,1.16,0a5.8,5.8,0,0,0,1.85-1.36q1-1,1.85-2,1-1.21,2-2.57a30.37,30.37,0,0,0,2.21-3.22q1-1.64,1.78-3.07a33.54,33.54,0,0,1,2.83-4.22.56.56,0,0,0,.22-.07.79.79,0,0,0,.25,0,.66.66,0,0,1,.4.11c.19,0,.29.24.29.57S72,36.5,71.22,38.21A47,47,0,0,1,68,44.14,41.64,41.64,0,0,1,64.44,49a18.65,18.65,0,0,1-4.39,3.86,2.2,2.2,0,0,0-.47.18,8.66,8.66,0,0,1-1,.36,6.67,6.67,0,0,1-1.34.25,5.69,5.69,0,0,1-1.56-.07,32.44,32.44,0,0,1-2.07,4.07,52.5,52.5,0,0,1-3.08,4.57,14,14,0,0,0-.94,1.14,3.07,3.07,0,0,0-.29.43q4,.79,8.19,1.57,3.62.64,7.94,1.25t8.37.89a23.36,23.36,0,0,0,5.69-.11,25.43,25.43,0,0,0,4.1-1,16,16,0,0,0,3.26-1.64q1.23-.86,2.68-2T92.75,60a5.29,5.29,0,0,1,2.32-1.43,3,3,0,0,1,1.74.07A3.21,3.21,0,0,1,98.26,59.79ZM18.66,77.65a26.08,26.08,0,0,0,7.21-1,30.56,30.56,0,0,0,6.31-2.57,33,33,0,0,0,5.44-3.72,41.09,41.09,0,0,0,4.6-4.54q-3.12-.21-6.7-.29t-7.94.07q-3.77.14-6.63.5T16,67A19.89,19.89,0,0,0,12.47,68a14.86,14.86,0,0,0-2.28,1.18,4.48,4.48,0,0,0-2.32,3.07,1.51,1.51,0,0,0-.07.79,2.21,2.21,0,0,0,.65,1.5,5.64,5.64,0,0,0,2.68,1.82,21.38,21.38,0,0,0,3.41.89A37.11,37.11,0,0,0,18.66,77.65Z"/><text class="cls-2" transform="translate(82.43 26.87)">UI <tspan class="cls-3" x="10.85" y="0">U</tspan><tspan x="17.1" y="0">X</tspan><tspan class="cls-4" x="0" y="9.6">2</tspan><tspan class="cls-5" x="4.51" y="9.6">0</tspan><tspan x="9.79" y="9.6">19</tspan></text></g></g></svg>